<svg width="72" height="56" viewBox="0 0 72 56" fill="none" xmlns="http://www.w3.org/2000/svg">
<path d="M31.1999 7.1999H39.5999M31.1999 11.9999H35.9999M35.6869 16.5912L30.6782 21.5999V16.5912H28.7999C27.4744 16.5912 26.3999 15.5167 26.3999 14.1912V4.7999C26.3999 3.47442 27.4744 2.3999 28.7999 2.3999H43.1999C44.5254 2.3999 45.5999 3.47442 45.5999 4.7999V14.1912C45.5999 15.5167 44.5254 16.5912 43.1999 16.5912H35.6869Z" stroke="black" stroke-width="2" stroke-linecap="round" stroke-linejoin="round"/>
<path d="M15.3232 39.6172C15.3232 41.5039 16.1025 43.4453 17.8525 44.3613L16.9912 45.4824C15.8359 44.8809 15.0635 43.8008 14.626 42.502C14.1885 43.8965 13.4092 45.0928 12.2471 45.7559L11.3721 44.6348C13.0947 43.623 13.8877 41.5723 13.8877 39.6172V39.2754H11.7275V38.0312H13.8877V36.2949H15.3232V38.0312H17.4561V39.2754H15.3232V39.6172ZM22.2686 35.8574V48.2168H20.8193V41.9551H19.5479V47.6152H18.1123V36.0762H19.5479V40.6973H20.8193V35.8574H22.2686ZM29.8076 36.7461V37.9492H25.3779V39.125H29.4521V40.3145H25.3779V41.5039C27.6885 41.5176 29.0967 41.4834 30.7236 41.2031L30.874 42.4062C29.0967 42.6934 27.5518 42.748 24.8857 42.7344H23.833V36.7461H29.8076ZM33.4443 35.8711V43.4043H31.9131V35.8711H33.4443ZM29.2744 43.582C31.8721 43.582 33.499 44.4297 33.499 45.8926C33.499 47.3555 31.8721 48.2031 29.2744 48.2031C26.6357 48.2031 25.0361 47.3555 25.0498 45.8926C25.0361 44.4297 26.6357 43.582 29.2744 43.582ZM29.2744 44.7578C27.5244 44.7578 26.5537 45.168 26.5674 45.8926C26.5537 46.6309 27.5244 47.0273 29.2744 47.0273C30.9834 47.0273 31.9814 46.6309 31.9814 45.8926C31.9814 45.168 30.9834 44.7578 29.2744 44.7578ZM48.8643 45.4824V46.7266H37.5713V45.4824H42.4385V43.0762H38.8154V36.6777H40.333V38.7012H46.0615V36.6777H47.5791V43.0762H43.9424V45.4824H48.8643ZM40.333 41.8457H46.0615V39.918H40.333V41.8457ZM59.4932 35.8574V48.2168H57.9619V35.8574H59.4932ZM55.8018 37.1699C55.8018 40.8477 54.3799 43.9785 50.0459 46.0293L49.2529 44.8125C52.4863 43.2744 53.9902 41.1826 54.2568 38.373H49.8818V37.1699H55.8018Z" fill="#131212"/>
</svg>
