<svg width="40" height="40" viewBox="0 0 40 40" fill="none" xmlns="http://www.w3.org/2000/svg">
<mask id="mask0_513_3900" style="mask-type:alpha" maskUnits="userSpaceOnUse" x="8" y="8" width="24" height="24">
<path d="M17.3449 11.2501C17.3449 10.753 17.7479 10.3501 18.2449 10.3501H21.7423C22.2394 10.3501 22.6423 10.753 22.6423 11.2501C22.6423 11.7472 22.2394 12.1501 21.7423 12.1501H18.2449C17.7479 12.1501 17.3449 11.7472 17.3449 11.2501Z" fill="#171719"/>
<path d="M15.6471 11.2358C15.6622 11.7326 15.2716 12.1476 14.7748 12.1626C13.918 12.1886 13.561 12.2565 13.3068 12.3872L13.2977 12.3919C12.9118 12.5849 12.5908 12.9069 12.373 13.3222C12.2431 13.5763 12.1756 13.9337 12.1497 14.7877C12.1346 15.2845 11.7197 15.6751 11.2228 15.66C10.726 15.645 10.3355 15.23 10.3505 14.7332C10.3764 13.8802 10.438 13.149 10.7736 12.4965L10.7763 12.4912C11.1536 11.7694 11.7372 11.1609 12.4882 10.7841C13.1395 10.4507 13.8692 10.3893 14.7203 10.3635C15.2171 10.3484 15.632 10.739 15.6471 11.2358Z" fill="#171719"/>
<path d="M24.3401 11.2358C24.3552 10.739 24.7702 10.3484 25.267 10.3635C26.118 10.3893 26.8477 10.4507 27.499 10.7841C28.25 11.1609 28.8336 11.7694 29.2109 12.4912L29.2137 12.4965C29.5492 13.149 29.6109 13.8802 29.6367 14.7332C29.6518 15.23 29.2612 15.645 28.7644 15.66C28.2676 15.6751 27.8526 15.2845 27.8375 14.7877C27.8117 13.9337 27.7441 13.5763 27.6142 13.3222C27.3964 12.9069 27.0754 12.5848 26.6896 12.3919L26.6804 12.3873C26.4262 12.2565 26.0693 12.1886 25.2125 12.1626C24.7156 12.1476 24.3251 11.7326 24.3401 11.2358Z" fill="#171719"/>
<path d="M11.2501 17.3449C11.7472 17.3449 12.1501 17.7479 12.1501 18.2449V21.7423C12.1501 22.2394 11.7472 22.6423 11.2501 22.6423C10.753 22.6423 10.3501 22.2394 10.3501 21.7423V18.2449C10.3501 17.7479 10.753 17.3449 11.2501 17.3449Z" fill="#171719"/>
<path d="M28.7371 17.3449C29.2342 17.3449 29.6371 17.7479 29.6371 18.2449V21.7423C29.6371 22.2394 29.2342 22.6423 28.7371 22.6423C28.2401 22.6423 27.8371 22.2394 27.8371 21.7423V18.2449C27.8371 17.7479 28.2401 17.3449 28.7371 17.3449Z" fill="#171719"/>
<path d="M28.7773 24.3401C29.2742 24.3552 29.6647 24.7702 29.6497 25.267C29.6238 26.12 29.5622 26.8512 29.2266 27.5037L29.2239 27.509C28.8465 28.2308 28.2629 28.8394 27.5118 29.2161C26.8605 29.5495 26.1309 29.6109 25.2799 29.6367C24.7831 29.6518 24.3682 29.2612 24.3531 28.7644C24.338 28.2676 24.7286 27.8526 25.2254 27.8376C26.0822 27.8116 26.4391 27.7437 26.6934 27.6129L26.7025 27.6083C27.0884 27.4153 27.4094 27.0933 27.6272 26.6779C27.7571 26.4239 27.8246 26.0665 27.8505 25.2125C27.8656 24.7156 28.2805 24.3251 28.7773 24.3401Z" fill="#171719"/>
<path d="M11.2228 24.3531C11.7197 24.338 12.1346 24.7286 12.1497 25.2254C12.1757 26.0822 12.2435 26.4392 12.3743 26.6934L12.379 26.7025C12.5719 27.0884 12.894 27.4094 13.3093 27.6272C13.5634 27.7571 13.9208 27.8246 14.7748 27.8505C15.2716 27.8656 15.6622 28.2805 15.6471 28.7774C15.632 29.2742 15.2171 29.6647 14.7203 29.6497C13.8672 29.6238 13.136 29.5622 12.4836 29.2266L12.4783 29.2239C11.7565 28.8466 11.1479 28.263 10.7712 27.512C10.4377 26.8607 10.3763 26.131 10.3505 25.2799C10.3355 24.7831 10.726 24.3682 11.2228 24.3531Z" fill="#171719"/>
<path d="M17.3449 28.7371C17.3449 28.2401 17.7479 27.8371 18.2449 27.8371H21.7423C22.2394 27.8371 22.6423 28.2401 22.6423 28.7371C22.6423 29.2342 22.2394 29.6371 21.7423 29.6371H18.2449C17.7479 29.6371 17.3449 29.2342 17.3449 28.7371Z" fill="#171719"/>
</mask>
<g mask="url(#mask0_513_3900)">
<rect x="8" y="8" width="24" height="24" fill="#131212"/>
</g>
</svg>
